<svg xmlns="http://www.w3.org/2000/svg" width="390.9" height="496.066" viewBox="102.19 172.912 390.9 496.066"><path d="M299.624 172.912h-1.984l-195.45 20.835v359.151l195.45 116.08 195.45-116.08V193.747l-193.466-20.835zm168.663 365.105L297.64 639.214 126.993 538.017V391.181l169.654 101.197v17.859l-116.079-69.449v17.857l117.071 70.441v18.852l-117.07-69.448v17.857l117.071 69.449 118.063-70.441v-75.402l52.584-31.749v149.813zm-.992-168.663l-46.631 27.78-21.827 12.898-102.189-60.521v17.858l87.308 52.583h-.992l-1.984.992-12.897 6.945-72.426-42.662v17.858l57.544 33.733-13.89 8.928-42.662-25.794v17.859l28.772 16.865-28.772 16.867-168.663-100.205L296.648 270.14l170.647 99.214zm.992-17.858l-171.64-101.198-169.654 101.198v-134.93l170.646-17.858 170.647 17.858v134.93z"/></svg>
